# xmcd CD database file
#
# Track frame offsets:
#	150
#	13075
#	25779
#	37957
#	52352
#	65026
#	78720
#	93773
#	106056
#	121433
#	135017
#	147169
#	160459
#
# Disc length: 2308 seconds
#
# Revision: 0
# Processed by: cddbd v1.5.2PL0 Copyright (c) Steve Scherf et al.
# Submitted via: CDex 1.51
#
DISCID=aa09020d
DTITLE=Die jungen Zellberger - Aber jetzt ....
DYEAR=2009
DGENRE=Volkstümlich
TTITLE0=Aber jetzt
TTITLE1=So klingt a geig´n bei uns im Zillertal
TTITLE2=I bin der Seppi aus Tirol
TTITLE3=Wie Cäsar
TTITLE4=Drauf sein mir stolz (Mia san Tiroler)
TTITLE5=Nur für´s Zillertal
TTITLE6=Der Wahnsinn hat einen Namen
TTITLE7=Zünftig so wie´s früher war
TTITLE8=Joana
TTITLE9=Schmusig Boarischer
TTITLE10=A´ Schihaserl
TTITLE11=Junge Freunde
TTITLE12=Drauf sein mir stolz (Instrumental)
EXTD=YEAR: 2009
EXTT0=
EXTT1=
EXTT2=
EXTT3=
EXTT4=
EXTT5=
EXTT6=
EXTT7=
EXTT8=
EXTT9=
EXTT10=
EXTT11=
EXTT12=
PLAYORDER=
